<?xml version="1.0" standalone="no"?><svg xmlns="http://www.w3.org/2000/svg" viewBox="0 0 1440 320"><path fill="#0099ff" fill-opacity="1" d="M0,128L30,149.3C60,171,120,213,180,213.3C240,213,300,171,360,176C420,181,480,235,540,261.3C600,288,660,288,720,272C780,256,840,224,900,197.3C960,171,1020,149,1080,160C1140,171,1200,213,1260,240C1320,267,1380,277,1410,282.7L1440,288L1440,320L1410,320C1380,320,1320,320,1260,320C1200,320,1140,320,1080,320C1020,320,960,320,900,320C840,320,780,320,720,320C660,320,600,320,540,320C480,320,420,320,360,320C300,320,240,320,180,320C120,320,60,320,30,320L0,320Z"></path></svg>